<svg width="217" height="34" viewBox="0 0 217 34" fill="none" xmlns="http://www.w3.org/2000/svg">
<path d="M45.6435 25.944L47.1275 6.904C47.9488 6.75467 48.9195 6.68 50.0395 6.68C51.1595 6.68 52.1395 6.75467 52.9795 6.904L54.6315 13.764C55.2848 16.8627 55.6302 18.552 55.6675 18.832H55.8635C55.9382 18.3653 56.2835 16.676 56.8995 13.764L58.5795 6.904C59.4009 6.75467 60.3715 6.68 61.4915 6.68C62.6115 6.68 63.5915 6.75467 64.4315 6.904L65.9155 25.944C65.3368 26.0933 64.6182 26.168 63.7595 26.168C62.9195 26.168 62.2288 26.1213 61.6875 26.028L61.2395 18.244C61.1088 15.1453 61.0342 12.9893 61.0155 11.776H60.8475L58.0755 23.172C57.4035 23.284 56.6288 23.34 55.7515 23.34C54.8928 23.34 54.1275 23.284 53.4555 23.172L50.7115 11.776H50.5155C50.5155 13.4373 50.4408 15.5933 50.2915 18.244L49.8715 26.028C49.3302 26.1213 48.6302 26.168 47.7715 26.168C46.9315 26.168 46.2222 26.0933 45.6435 25.944ZM74.1477 15.248V26C73.8304 26.056 73.4851 26.0933 73.1117 26.112C72.7384 26.1493 72.3557 26.168 71.9637 26.168C71.5717 26.168 71.1797 26.1493 70.7877 26.112C70.4144 26.0933 70.0691 26.056 69.7517 26V16.732C69.7517 15.6493 69.3131 15.108 68.4357 15.108H68.0157C67.9037 14.7533 67.8477 14.2587 67.8477 13.624C67.8477 13.008 67.9037 12.4853 68.0157 12.056C68.5011 12.0187 68.9491 11.9907 69.3597 11.972C69.7704 11.9347 70.1437 11.916 70.4797 11.916H71.0957C72.0477 11.916 72.7944 12.2147 73.3357 12.812C73.8771 13.4093 74.1477 14.2213 74.1477 15.248ZM69.2477 6.4C69.7891 6.10133 70.4891 5.952 71.3477 5.952C72.2251 5.952 72.9064 6.10133 73.3917 6.4C73.6157 6.904 73.7277 7.44533 73.7277 8.024C73.7277 8.60267 73.6157 9.144 73.3917 9.648C72.8504 9.928 72.1411 10.068 71.2637 10.068C70.3864 10.068 69.7144 9.928 69.2477 9.648C69.0237 9.144 68.9117 8.60267 68.9117 8.024C68.9117 7.44533 69.0237 6.904 69.2477 6.4ZM87.8916 14.492V14.156C87.8916 11.3933 86.8649 10.012 84.8116 10.012C83.6356 10.012 82.7862 10.5533 82.2636 11.636C81.7409 12.7 81.4796 14.2773 81.4796 16.368C81.4796 18.44 81.8062 19.98 82.4596 20.988C83.1129 21.996 84.0649 22.5 85.3156 22.5C85.9689 22.5 86.6876 22.3507 87.4716 22.052C88.2742 21.7347 89.1422 21.24 90.0756 20.568C90.5422 20.8853 90.9716 21.324 91.3636 21.884C91.7742 22.4253 92.0262 22.948 92.1196 23.452C91.6902 23.8627 91.1862 24.2547 90.6076 24.628C90.0476 24.9827 89.4316 25.2907 88.7596 25.552C88.1062 25.8133 87.4156 26.0187 86.6876 26.168C85.9782 26.336 85.2596 26.42 84.5316 26.42C83.0942 26.42 81.8809 26.1493 80.8916 25.608C79.9022 25.048 79.0996 24.3107 78.4836 23.396C77.8862 22.4813 77.4476 21.4267 77.1676 20.232C76.9062 19.0373 76.7756 17.796 76.7756 16.508C76.7756 14.828 76.9809 13.3627 77.3916 12.112C77.8209 10.8427 78.3902 9.788 79.0996 8.948C79.8276 8.108 80.6769 7.48267 81.6476 7.072C82.6182 6.64266 83.6542 6.428 84.7556 6.428C85.8756 6.428 86.8929 6.57733 87.8076 6.876C88.7222 7.17467 89.4969 7.58533 90.1316 8.108C90.7849 8.63067 91.2796 9.24667 91.6156 9.956C91.9702 10.6653 92.1476 11.4307 92.1476 12.252C92.1476 13.9133 91.2982 14.744 89.5996 14.744C89.0956 14.744 88.5262 14.66 87.8916 14.492ZM106.438 16.76V22.5C106.438 23.7507 106.671 24.6747 107.138 25.272C106.429 25.9067 105.57 26.224 104.562 26.224C103.591 26.224 102.929 26 102.574 25.552C102.219 25.104 102.042 24.4227 102.042 23.508V17.544C102.042 16.9093 101.958 16.4427 101.79 16.144C101.622 15.8453 101.295 15.696 100.81 15.696C100.53 15.696 100.213 15.7707 99.8581 15.92C99.5034 16.0693 99.1394 16.312 98.7661 16.648V26C98.1501 26.112 97.4407 26.168 96.6381 26.168C95.8354 26.168 95.1261 26.112 94.5101 26V5.588L94.7061 5.392H96.3861C97.2821 5.392 97.8981 5.588 98.2341 5.98C98.5887 6.372 98.7661 7.05333 98.7661 8.024V13.316C100.017 12.2893 101.267 11.776 102.518 11.776C103.769 11.776 104.73 12.2333 105.402 13.148C106.093 14.044 106.438 15.248 106.438 16.76ZM120.605 20.428H113.297C113.335 21.268 113.549 21.9213 113.941 22.388C114.333 22.8547 114.977 23.088 115.873 23.088C116.321 23.088 116.835 23.0227 117.413 22.892C118.011 22.7613 118.692 22.5467 119.457 22.248C120.073 22.8827 120.456 23.7413 120.605 24.824C119.112 25.888 117.283 26.42 115.117 26.42C113.941 26.42 112.952 26.2333 112.149 25.86C111.365 25.4867 110.721 24.964 110.217 24.292C109.732 23.62 109.387 22.8267 109.181 21.912C108.976 20.9973 108.873 19.9987 108.873 18.916C108.873 17.8707 108.995 16.9093 109.237 16.032C109.499 15.136 109.881 14.3613 110.385 13.708C110.908 13.0547 111.561 12.5413 112.345 12.168C113.148 11.7947 114.081 11.608 115.145 11.608C116.041 11.608 116.844 11.7573 117.553 12.056C118.281 12.3547 118.897 12.7653 119.401 13.288C119.905 13.8107 120.288 14.436 120.549 15.164C120.829 15.892 120.969 16.6853 120.969 17.544C120.969 18.6827 120.848 19.644 120.605 20.428ZM113.269 17.404H116.965V17.096C116.965 16.4053 116.807 15.836 116.489 15.388C116.191 14.94 115.733 14.716 115.117 14.716C114.52 14.716 114.072 14.9307 113.773 15.36C113.493 15.7707 113.325 16.452 113.269 17.404ZM130.603 18.216V17.852C130.603 16.8067 130.491 16.0507 130.267 15.584C130.043 15.0987 129.623 14.856 129.007 14.856C128.354 14.856 127.897 15.1827 127.635 15.836C127.374 16.4707 127.243 17.5347 127.243 19.028C127.243 19.7747 127.29 20.4 127.383 20.904C127.495 21.408 127.645 21.8187 127.831 22.136C128.037 22.4347 128.289 22.6587 128.587 22.808C128.886 22.9387 129.241 23.004 129.651 23.004C130.081 23.004 130.557 22.9107 131.079 22.724C131.602 22.5373 132.162 22.2387 132.759 21.828C132.927 21.9213 133.095 22.0613 133.263 22.248C133.45 22.416 133.618 22.612 133.767 22.836C133.917 23.06 134.047 23.3027 134.159 23.564C134.271 23.8067 134.355 24.04 134.411 24.264C133.795 24.9173 132.993 25.44 132.003 25.832C131.014 26.224 130.006 26.42 128.979 26.42C126.982 26.42 125.451 25.7667 124.387 24.46C123.323 23.1533 122.791 21.296 122.791 18.888C122.791 17.656 122.959 16.5827 123.295 15.668C123.65 14.7533 124.107 13.9973 124.667 13.4C125.246 12.8027 125.899 12.3547 126.627 12.056C127.374 11.7573 128.149 11.608 128.951 11.608C129.773 11.608 130.519 11.72 131.191 11.944C131.882 12.168 132.47 12.4853 132.955 12.896C133.459 13.3067 133.842 13.8013 134.103 14.38C134.383 14.94 134.523 15.5653 134.523 16.256C134.523 17.04 134.29 17.5907 133.823 17.908C133.375 18.2253 132.815 18.384 132.143 18.384C131.583 18.384 131.07 18.328 130.603 18.216ZM147.644 20.428L148.344 22.472C148.718 23.704 149.166 24.4973 149.688 24.852C148.867 25.7667 147.887 26.224 146.748 26.224C146.132 26.224 145.666 26.084 145.348 25.804C145.031 25.5053 144.751 24.992 144.508 24.264L143.668 21.856C143.482 21.2773 143.267 20.8947 143.024 20.708C142.782 20.5027 142.455 20.4 142.044 20.4C141.634 20.4 141.344 20.4093 141.176 20.428V26C140.56 26.112 139.851 26.168 139.048 26.168C138.246 26.168 137.536 26.112 136.92 26V5.588L137.116 5.392H138.796C139.674 5.392 140.29 5.588 140.644 5.98C140.999 6.372 141.176 7.05333 141.176 8.024V16.816H141.624C141.96 16.816 142.222 16.648 142.408 16.312L143.864 13.512C144.387 12.448 145.208 11.916 146.328 11.916C146.87 11.916 147.682 11.9347 148.764 11.972L148.932 12.196L146.776 16.368C146.403 17.0773 145.927 17.628 145.348 18.02C146.468 18.4307 147.234 19.2333 147.644 20.428Z" fill="#E20715"/>
<path d="M162.704 24.936L159.092 6.96C159.447 6.792 159.82 6.708 160.212 6.708C160.623 6.708 160.903 6.792 161.052 6.96C161.22 7.128 161.351 7.42667 161.444 7.856L163.516 18.58L164.468 23.956C164.487 24.0867 164.505 24.1707 164.524 24.208C164.561 24.2267 164.627 24.236 164.72 24.236L168.164 7.296C168.575 7.24 169.069 7.212 169.648 7.212C170.227 7.212 170.675 7.24 170.992 7.296L174.156 23.956C174.193 24.1427 174.268 24.236 174.38 24.236C174.548 23.3027 174.912 21.4173 175.472 18.58L177.936 6.876C178.216 6.82 178.552 6.792 178.944 6.792C179.336 6.792 179.672 6.82933 179.952 6.904L180.064 7.044L175.892 25.972C175.425 26.0653 174.875 26.112 174.24 26.112C173.624 26.112 173.204 26.0373 172.98 25.888C172.756 25.72 172.607 25.412 172.532 24.964L170.964 16.676C170.367 13.484 169.928 11.104 169.648 9.536H169.48C168.939 12.504 168.472 14.884 168.08 16.676L166.12 26C165.616 26.0747 164.953 26.112 164.132 26.112C163.329 26.112 162.853 25.72 162.704 24.936ZM191.389 19.756H182.709C182.802 22.9293 184.006 24.516 186.321 24.516C187.59 24.516 188.944 24.124 190.381 23.34C190.792 23.7133 191.044 24.1893 191.137 24.768C189.606 25.8133 187.889 26.336 185.985 26.336C185.014 26.336 184.184 26.1587 183.493 25.804C182.802 25.4307 182.233 24.9267 181.785 24.292C181.356 23.6387 181.038 22.8733 180.833 21.996C180.628 21.1187 180.525 20.1573 180.525 19.112C180.525 18.048 180.646 17.0773 180.889 16.2C181.15 15.3227 181.524 14.5667 182.009 13.932C182.494 13.2973 183.073 12.8027 183.745 12.448C184.436 12.0933 185.22 11.916 186.097 11.916C186.956 11.916 187.721 12.0747 188.393 12.392C189.084 12.6907 189.653 13.1107 190.101 13.652C190.568 14.1747 190.922 14.8093 191.165 15.556C191.408 16.284 191.529 17.068 191.529 17.908C191.529 18.244 191.51 18.5707 191.473 18.888C191.454 19.1867 191.426 19.476 191.389 19.756ZM182.709 18.16H189.429V17.796C189.429 16.508 189.158 15.472 188.617 14.688C188.076 13.904 187.264 13.512 186.181 13.512C185.117 13.512 184.286 13.932 183.689 14.772C183.11 15.612 182.784 16.7413 182.709 18.16ZM195.055 25.3V5.588L195.223 5.42H195.979C196.427 5.42 196.726 5.532 196.875 5.756C197.024 5.96133 197.099 6.316 197.099 6.82V13.736C198.256 12.5973 199.591 12.028 201.103 12.028C202.615 12.028 203.782 12.6627 204.603 13.932C205.424 15.1827 205.835 16.9373 205.835 19.196C205.835 20.316 205.676 21.3147 205.359 22.192C205.06 23.0507 204.64 23.7787 204.099 24.376C203.558 24.9733 202.923 25.4307 202.195 25.748C201.486 26.0467 200.73 26.196 199.927 26.196C198.322 26.196 196.698 25.8973 195.055 25.3ZM197.099 15.808V24.124C197.939 24.4413 198.882 24.6 199.927 24.6C201.01 24.6 201.915 24.124 202.643 23.172C203.371 22.22 203.735 20.848 203.735 19.056C203.735 18.16 203.66 17.3853 203.511 16.732C203.362 16.0787 203.147 15.5373 202.867 15.108C202.606 14.6787 202.307 14.3613 201.971 14.156C201.635 13.9507 201.271 13.848 200.879 13.848C200.095 13.848 199.376 14.0347 198.723 14.408C198.088 14.7627 197.547 15.2293 197.099 15.808Z" fill="black"/>
<circle cx="213.5" cy="22.5" r="3.5" fill="#E20715"/>
<g clip-path="url(#clip0)">
<path d="M13.4912 25.9415L11.2237 23.6868C11.0537 23.5177 11.0537 23.1795 11.2237 23.0104L13.4912 20.7557C13.6612 20.5866 14.0014 20.5866 14.1714 20.7557L16.4389 23.0104C16.6089 23.1795 16.6089 23.5177 16.4389 23.6868L14.1714 25.9415C14.0014 26.1106 13.6612 26.1106 13.4912 25.9415Z" fill="#808285"/>
<path d="M24.205 26.5616L21.9942 24.2505C21.8242 24.0814 21.8242 23.7432 21.9942 23.5741L24.3184 21.3758C24.4884 21.2067 24.8285 21.2067 24.9986 21.3758L27.2094 23.6869C27.3794 23.856 27.3794 24.1942 27.2094 24.3633L24.8852 26.5616C24.7152 26.7871 24.4317 26.7871 24.205 26.5616Z" fill="#808285"/>
<path d="M19.2732 23.3487C19.1032 23.3487 18.9898 23.2923 18.8764 23.1796L17.8561 22.1649C17.7427 22.0522 17.686 21.9395 17.686 21.7704C17.686 21.6013 17.7427 21.4885 17.8561 21.3758L18.8764 20.3612C19.1032 20.1357 19.4433 20.1357 19.67 20.3612L20.6904 21.3758C20.8038 21.4885 20.8605 21.6013 20.8605 21.7704C20.8605 21.9395 20.8038 22.0522 20.6904 22.1649L19.67 23.1796C19.5567 23.2923 19.4433 23.3487 19.2732 23.3487ZM18.423 21.7704L19.2732 22.6159L20.1235 21.7704L19.2732 20.9249L18.423 21.7704Z" fill="#808285"/>
<path d="M18.7633 19.1211C18.5932 19.1211 18.4231 19.0647 18.3098 18.952L17.006 17.5992C16.7793 17.3737 16.7793 16.9791 17.006 16.6973L18.3098 15.4009C18.5365 15.1754 18.9333 15.1754 19.2168 15.4009L20.5205 16.6973C20.7473 16.9228 20.7473 17.3173 20.5205 17.5992L19.2168 18.8956C19.1034 19.0647 18.9333 19.1211 18.7633 19.1211ZM17.5729 17.1482L18.8199 18.3883L20.067 17.1482L18.7633 15.9645L17.5729 17.1482Z" fill="#ED1C24"/>
<path d="M22.2209 20.1921L21.3706 19.3466C21.314 19.2902 21.314 19.1775 21.3706 19.0647L22.2209 18.2192C22.2776 18.1628 22.391 18.1628 22.5044 18.2192L23.3546 19.0647C23.4113 19.1211 23.4113 19.2338 23.3546 19.3466L22.5044 20.1921C22.391 20.2484 22.2776 20.2484 22.2209 20.1921Z" fill="#ED1C24"/>
<path d="M18.593 26.167L17.7994 25.3779C17.7427 25.3215 17.7427 25.2088 17.7994 25.1524L18.593 24.3633C18.6496 24.3069 18.763 24.3069 18.8197 24.3633L19.6133 25.1524C19.67 25.2088 19.67 25.3215 19.6133 25.3779L18.8197 26.167C18.763 26.2234 18.6496 26.2234 18.593 26.167Z" fill="#ED1C24"/>
<path d="M19.9533 29.8872L18.5928 28.5344C18.4795 28.4217 18.4795 28.2526 18.5928 28.1399L19.8966 26.8434C20.01 26.7307 20.1801 26.7307 20.2934 26.8434L21.6539 28.1962C21.7673 28.309 21.7673 28.4781 21.6539 28.5908L20.3501 29.8872C20.2367 30 20.0667 30 19.9533 29.8872Z" fill="#ED1C24"/>
<path d="M38.5466 8.29851C36.8461 3.05634 30.3839 1.25258 26.0757 4.91647C23.8083 6.83296 21.5975 8.91855 19.3301 10.9478L19.3868 12.3006C19.5568 12.4133 19.6702 12.5261 19.7269 12.6388C22.5045 15.6826 25.4522 18.6138 28.1731 21.714C28.9667 22.6158 29.6469 22.8413 30.6106 21.9394C32.5946 20.0793 34.5219 18.4446 36.506 16.5282C38.8301 14.2171 39.567 11.4551 38.5466 8.29851ZM35.6557 14.4426C33.7283 16.5282 31.5176 18.3319 29.3635 20.3611C26.6993 17.43 24.2051 14.6117 21.5408 11.6806C23.7516 9.7077 25.849 7.67847 28.1164 5.93108C30.3839 4.24006 33.6716 4.91647 35.5423 7.05843C37.3562 9.14402 37.583 12.357 35.6557 14.4426Z" fill="#ED1C24"/>
<path d="M19.5002 10.8914C17.2327 8.86219 15.1354 6.88933 12.9813 5.0292C9.69349 2.21083 4.87518 2.4363 2.04088 5.59288C-0.850112 8.86219 -0.680054 13.6534 2.60774 16.6973C4.42169 18.4446 6.06559 19.6847 7.93623 21.3758C9.46675 22.7286 9.58012 22.7286 10.9406 21.2067C13.6615 18.1628 16.6659 15.5135 19.4435 12.4133V10.8914H19.5002Z" fill="#ED1C24"/>
</g>
<defs>
<clipPath id="clip0">
<rect y="3" width="39" height="27" fill="white"/>
</clipPath>
</defs>
</svg>
